<mxfile host="app.diagrams.net" modified="2022-09-20T17:34:35.136Z" agent="5.0 (Windows)" etag="BwMnnwklVJNO92XsFFTS" version="20.3.3" type="github">
  <diagram id="07fea595-8f29-1299-0266-81d95cde20df" name="Page-1">
    <mxGraphModel dx="661" dy="350" grid="1" gridSize="10" guides="1" tooltips="1" connect="1" arrows="1" fold="1" page="1" pageScale="1" pageWidth="4000" pageHeight="2000" background="#ffffff" math="0" shadow="0">
      <root>
        <mxCell id="0" />
        <mxCell id="1" parent="0" />
        <mxCell id="Bta4R8MGhBC_zZpxbiVx-255" value="" style="group;fontSize=19;verticalAlign=middle;fillColor=#3871AB;fontColor=#FFFFFF;shadow=0;fontStyle=0;spacing=6;sketch=0;labelBackgroundColor=none;" parent="1" vertex="1" connectable="0">
          <mxGeometry x="2150" y="700" width="240" height="502.3600000000001" as="geometry" />
        </mxCell>
        <mxCell id="Bta4R8MGhBC_zZpxbiVx-245" value="" style="group" parent="Bta4R8MGhBC_zZpxbiVx-255" vertex="1" connectable="0">
          <mxGeometry width="240" height="280" as="geometry" />
        </mxCell>
        <mxCell id="Bta4R8MGhBC_zZpxbiVx-246" value="" style="group" parent="Bta4R8MGhBC_zZpxbiVx-245" vertex="1" connectable="0">
          <mxGeometry y="49.41176470588235" width="240" height="230.58823529411768" as="geometry" />
        </mxCell>
        <mxCell id="Bta4R8MGhBC_zZpxbiVx-247" value="NO3-N" style="whiteSpace=wrap;shadow=0;fontColor=#FFFFFF;fontFamily=Helvetica;fontStyle=0;html=1;fontSize=19;plain-purple;strokeColor=none;fillColor=#3871AB;gradientColor=none;spacing=6;verticalAlign=middle;sketch=0;labelBackgroundColor=none;" parent="Bta4R8MGhBC_zZpxbiVx-246" vertex="1">
          <mxGeometry width="240" height="82.35294117647061" as="geometry" />
        </mxCell>
        <mxCell id="Bta4R8MGhBC_zZpxbiVx-248" value="GHG" style="whiteSpace=wrap;shadow=0;fontColor=#FFFFFF;fontFamily=Helvetica;fontStyle=0;html=1;fontSize=19;plain-purple;strokeColor=none;fillColor=#3871AB;gradientColor=none;spacing=6;verticalAlign=middle;sketch=0;labelBackgroundColor=none;" parent="Bta4R8MGhBC_zZpxbiVx-246" vertex="1">
          <mxGeometry y="82.35294117647061" width="240" height="74.11764705882354" as="geometry" />
        </mxCell>
        <mxCell id="Bta4R8MGhBC_zZpxbiVx-249" value="Carbon" style="whiteSpace=wrap;shadow=0;fontColor=#FFFFFF;fontFamily=Helvetica;fontStyle=0;html=1;fontSize=19;plain-purple;strokeColor=none;fillColor=#3871AB;gradientColor=none;spacing=6;verticalAlign=middle;sketch=0;labelBackgroundColor=none;" parent="Bta4R8MGhBC_zZpxbiVx-246" vertex="1">
          <mxGeometry y="156.47058823529414" width="240" height="74.11764705882354" as="geometry" />
        </mxCell>
        <mxCell id="Bta4R8MGhBC_zZpxbiVx-250" value="Ecosystem Services" style="verticalLabelPosition=middle;verticalAlign=middle;html=1;shape=mxgraph.basic.corner_round_rect;dx=6;fontSize=21;whiteSpace=wrap;labelPosition=center;align=center;" parent="Bta4R8MGhBC_zZpxbiVx-245" vertex="1">
          <mxGeometry width="240" height="49.41176470588235" as="geometry" />
        </mxCell>
        <mxCell id="Bta4R8MGhBC_zZpxbiVx-251" value="P" style="whiteSpace=wrap;shadow=0;fontColor=#FFFFFF;fontFamily=Helvetica;fontStyle=0;html=1;fontSize=19;plain-purple;strokeColor=none;fillColor=#3871AB;gradientColor=none;spacing=6;verticalAlign=middle;sketch=0;labelBackgroundColor=none;" parent="Bta4R8MGhBC_zZpxbiVx-255" vertex="1">
          <mxGeometry y="280.00235294117647" width="240" height="74.11764705882354" as="geometry" />
        </mxCell>
        <mxCell id="Bta4R8MGhBC_zZpxbiVx-253" value="Erosion" style="whiteSpace=wrap;shadow=0;fontColor=#FFFFFF;fontFamily=Helvetica;fontStyle=0;html=1;fontSize=19;plain-purple;strokeColor=none;fillColor=#3871AB;gradientColor=none;spacing=6;verticalAlign=middle;sketch=0;labelBackgroundColor=none;" parent="Bta4R8MGhBC_zZpxbiVx-255" vertex="1">
          <mxGeometry y="354.1223529411765" width="240" height="74.11764705882354" as="geometry" />
        </mxCell>
        <mxCell id="Bta4R8MGhBC_zZpxbiVx-254" value="Habitat" style="whiteSpace=wrap;shadow=0;fontColor=#FFFFFF;fontFamily=Helvetica;fontStyle=0;html=1;fontSize=19;plain-purple;strokeColor=none;fillColor=#3871AB;gradientColor=none;spacing=6;verticalAlign=middle;sketch=0;labelBackgroundColor=none;" parent="Bta4R8MGhBC_zZpxbiVx-255" vertex="1">
          <mxGeometry y="428.2423529411765" width="240" height="74.11764705882354" as="geometry" />
        </mxCell>
        <mxCell id="Bta4R8MGhBC_zZpxbiVx-270" value="" style="group" parent="1" vertex="1" connectable="0">
          <mxGeometry x="3090" y="700" width="230" height="371.5" as="geometry" />
        </mxCell>
        <mxCell id="Bta4R8MGhBC_zZpxbiVx-232" value="Identify optimal placement of perennials and cover crops&lt;br&gt;" style="verticalLabelPosition=middle;verticalAlign=middle;shape=mxgraph.basic.corner_round_rect;dx=6;fontSize=21;html=1;labelPosition=center;align=center;whiteSpace=wrap;" parent="Bta4R8MGhBC_zZpxbiVx-270" vertex="1">
          <mxGeometry width="230" height="100" as="geometry" />
        </mxCell>
        <mxCell id="Bta4R8MGhBC_zZpxbiVx-220" value="Low yielding" style="whiteSpace=wrap;shadow=0;fontColor=#FFFFFF;fontFamily=Helvetica;fontStyle=0;html=1;fontSize=19;plain-purple;strokeColor=none;fillColor=#3871AB;gradientColor=none;spacing=6;verticalAlign=middle;sketch=0;labelBackgroundColor=none;" parent="Bta4R8MGhBC_zZpxbiVx-270" vertex="1">
          <mxGeometry y="281.5" width="225" height="90" as="geometry" />
        </mxCell>
        <mxCell id="Bta4R8MGhBC_zZpxbiVx-228" value="Vulnerable" style="whiteSpace=wrap;shadow=0;fontColor=#FFFFFF;fontFamily=Helvetica;fontStyle=0;html=1;fontSize=19;plain-purple;strokeColor=none;fillColor=#3871AB;gradientColor=none;spacing=6;verticalAlign=middle;sketch=0;labelBackgroundColor=none;" parent="Bta4R8MGhBC_zZpxbiVx-270" vertex="1">
          <mxGeometry y="191.5" width="225" height="90" as="geometry" />
        </mxCell>
        <mxCell id="Bta4R8MGhBC_zZpxbiVx-229" value="Proximity to digester" style="whiteSpace=wrap;shadow=0;fontColor=#FFFFFF;fontFamily=Helvetica;fontStyle=0;html=1;fontSize=19;plain-purple;strokeColor=none;fillColor=#3871AB;gradientColor=none;spacing=6;verticalAlign=middle;sketch=0;labelBackgroundColor=none;" parent="Bta4R8MGhBC_zZpxbiVx-270" vertex="1">
          <mxGeometry y="100" width="225" height="90" as="geometry" />
        </mxCell>
        <mxCell id="Bta4R8MGhBC_zZpxbiVx-271" value="" style="group" parent="1" vertex="1" connectable="0">
          <mxGeometry x="1560" y="700" width="240" height="474.1199999999999" as="geometry" />
        </mxCell>
        <mxCell id="Bta4R8MGhBC_zZpxbiVx-238" value="" style="group" parent="Bta4R8MGhBC_zZpxbiVx-271" vertex="1" connectable="0">
          <mxGeometry width="240" height="310" as="geometry" />
        </mxCell>
        <mxCell id="Bta4R8MGhBC_zZpxbiVx-235" value="" style="group" parent="Bta4R8MGhBC_zZpxbiVx-238" vertex="1" connectable="0">
          <mxGeometry y="54.70588235294118" width="240" height="255.2941176470588" as="geometry" />
        </mxCell>
        <mxCell id="Bta4R8MGhBC_zZpxbiVx-218" value="Biogas" style="whiteSpace=wrap;shadow=0;fontColor=#FFFFFF;fontFamily=Helvetica;fontStyle=0;html=1;fontSize=19;plain-purple;strokeColor=none;fillColor=#FF6666;gradientColor=none;spacing=6;verticalAlign=middle;sketch=0;labelBackgroundColor=none;" parent="Bta4R8MGhBC_zZpxbiVx-235" vertex="1">
          <mxGeometry width="240" height="91.17647058823529" as="geometry" />
        </mxCell>
        <mxCell id="Bta4R8MGhBC_zZpxbiVx-219" value="Prairie" style="whiteSpace=wrap;shadow=0;fontColor=#FFFFFF;fontFamily=Helvetica;fontStyle=0;html=1;fontSize=19;plain-purple;strokeColor=none;fillColor=#3871AB;gradientColor=none;spacing=6;verticalAlign=middle;sketch=0;labelBackgroundColor=none;" parent="Bta4R8MGhBC_zZpxbiVx-235" vertex="1">
          <mxGeometry y="91.17647058823529" width="240" height="82.05882352941177" as="geometry" />
        </mxCell>
        <mxCell id="Bta4R8MGhBC_zZpxbiVx-223" value="Cover crop" style="whiteSpace=wrap;shadow=0;fontColor=#FFFFFF;fontFamily=Helvetica;fontStyle=0;html=1;fontSize=19;plain-purple;strokeColor=none;fillColor=#3871AB;gradientColor=none;spacing=6;verticalAlign=middle;sketch=0;labelBackgroundColor=none;" parent="Bta4R8MGhBC_zZpxbiVx-235" vertex="1">
          <mxGeometry y="173.23529411764704" width="240" height="82.05882352941177" as="geometry" />
        </mxCell>
        <mxCell id="Bta4R8MGhBC_zZpxbiVx-237" value="Yield Potential" style="verticalLabelPosition=middle;verticalAlign=middle;html=1;shape=mxgraph.basic.corner_round_rect;dx=6;fontSize=21;whiteSpace=wrap;labelPosition=center;align=center;" parent="Bta4R8MGhBC_zZpxbiVx-238" vertex="1">
          <mxGeometry width="240" height="54.70588235294118" as="geometry" />
        </mxCell>
        <mxCell id="Bta4R8MGhBC_zZpxbiVx-268" value="Corn" style="whiteSpace=wrap;shadow=0;fontColor=#FFFFFF;fontFamily=Helvetica;fontStyle=0;html=1;fontSize=19;plain-purple;strokeColor=none;fillColor=#2f5b7c;gradientColor=none;spacing=6;verticalAlign=middle;sketch=0;labelBackgroundColor=none;" parent="Bta4R8MGhBC_zZpxbiVx-271" vertex="1">
          <mxGeometry y="310.00117647058823" width="240" height="82.05882352941177" as="geometry" />
        </mxCell>
        <mxCell id="Bta4R8MGhBC_zZpxbiVx-269" value="Soybeans" style="whiteSpace=wrap;shadow=0;fontColor=#FFFFFF;fontFamily=Helvetica;fontStyle=0;html=1;fontSize=19;plain-purple;strokeColor=none;fillColor=#2f5b7c;gradientColor=none;spacing=6;verticalAlign=middle;sketch=0;labelBackgroundColor=none;" parent="Bta4R8MGhBC_zZpxbiVx-271" vertex="1">
          <mxGeometry y="392.0611764705882" width="240" height="82.05882352941177" as="geometry" />
        </mxCell>
        <mxCell id="Bta4R8MGhBC_zZpxbiVx-288" value="Grand River Basin" style="verticalLabelPosition=middle;verticalAlign=middle;html=1;shape=mxgraph.basic.corner_round_rect;dx=6;labelBackgroundColor=none;fontSize=21;whiteSpace=wrap;labelPosition=center;align=center;" parent="1" vertex="1">
          <mxGeometry x="3260" y="1360" width="260" height="190" as="geometry" />
        </mxCell>
        <mxCell id="Bta4R8MGhBC_zZpxbiVx-290" value="Mud Creek Watershed (Sievers)" style="verticalLabelPosition=middle;verticalAlign=middle;html=1;shape=mxgraph.basic.corner_round_rect;dx=6;labelBackgroundColor=none;fontSize=21;whiteSpace=wrap;labelPosition=center;align=center;" parent="1" vertex="1">
          <mxGeometry x="2380" y="1360" width="260" height="190" as="geometry" />
        </mxCell>
        <mxCell id="Bta4R8MGhBC_zZpxbiVx-291" value="Chesapeake Bay" style="verticalLabelPosition=middle;verticalAlign=middle;html=1;shape=mxgraph.basic.corner_round_rect;dx=6;labelBackgroundColor=none;fontSize=21;whiteSpace=wrap;labelPosition=center;align=center;" parent="1" vertex="1">
          <mxGeometry x="2100" y="1360" width="260" height="190" as="geometry" />
        </mxCell>
        <mxCell id="Bta4R8MGhBC_zZpxbiVx-292" value="Dairy Cropping Systems" style="verticalLabelPosition=middle;verticalAlign=middle;html=1;shape=mxgraph.basic.corner_round_rect;dx=6;labelBackgroundColor=none;fontSize=21;whiteSpace=wrap;labelPosition=center;align=center;" parent="1" vertex="1">
          <mxGeometry x="2670" y="1360" width="260" height="190" as="geometry" />
        </mxCell>
        <mxCell id="Bta4R8MGhBC_zZpxbiVx-295" value="" style="group" parent="1" vertex="1" connectable="0">
          <mxGeometry x="900" y="460" width="240" height="360" as="geometry" />
        </mxCell>
        <mxCell id="Bta4R8MGhBC_zZpxbiVx-296" value="" style="group" parent="Bta4R8MGhBC_zZpxbiVx-295" vertex="1" connectable="0">
          <mxGeometry y="63.529411764705884" width="240" height="296.4705882352942" as="geometry" />
        </mxCell>
        <mxCell id="Bta4R8MGhBC_zZpxbiVx-297" value="ACPF, FiNRT, InVEST" style="whiteSpace=wrap;shadow=0;fontColor=#FFFFFF;fontFamily=Helvetica;fontStyle=0;html=1;fontSize=19;plain-purple;strokeColor=none;fillColor=#3871AB;gradientColor=none;spacing=6;verticalAlign=middle;sketch=0;labelBackgroundColor=none;" parent="Bta4R8MGhBC_zZpxbiVx-296" vertex="1">
          <mxGeometry width="240" height="105.8823529411765" as="geometry" />
        </mxCell>
        <mxCell id="Bta4R8MGhBC_zZpxbiVx-298" value="FiNRT" style="whiteSpace=wrap;shadow=0;fontColor=#FFFFFF;fontFamily=Helvetica;fontStyle=0;html=1;fontSize=19;plain-purple;strokeColor=none;fillColor=#3871AB;gradientColor=none;spacing=6;verticalAlign=middle;sketch=0;labelBackgroundColor=none;" parent="Bta4R8MGhBC_zZpxbiVx-296" vertex="1">
          <mxGeometry y="105.8823529411765" width="240" height="95.29411764705884" as="geometry" />
        </mxCell>
        <mxCell id="Bta4R8MGhBC_zZpxbiVx-299" value="InVEST" style="whiteSpace=wrap;shadow=0;fontColor=#FFFFFF;fontFamily=Helvetica;fontStyle=0;html=1;fontSize=19;plain-purple;strokeColor=none;fillColor=#3871AB;gradientColor=none;spacing=6;verticalAlign=middle;sketch=0;labelBackgroundColor=none;" parent="Bta4R8MGhBC_zZpxbiVx-296" vertex="1">
          <mxGeometry y="201.17647058823533" width="240" height="95.29411764705884" as="geometry" />
        </mxCell>
        <mxCell id="Bta4R8MGhBC_zZpxbiVx-300" value="John T/Jessica/Haleigh" style="verticalLabelPosition=middle;verticalAlign=middle;html=1;shape=mxgraph.basic.corner_round_rect;dx=6;fontSize=21;whiteSpace=wrap;labelPosition=center;align=center;" parent="Bta4R8MGhBC_zZpxbiVx-295" vertex="1">
          <mxGeometry width="240" height="63.529411764705884" as="geometry" />
        </mxCell>
        <mxCell id="FbwZjn5DJ369boL4K8h1-13" value="" style="group" parent="1" vertex="1" connectable="0">
          <mxGeometry x="1610" y="50" width="240" height="550.5799999999999" as="geometry" />
        </mxCell>
        <mxCell id="Bta4R8MGhBC_zZpxbiVx-262" value="" style="group" parent="FbwZjn5DJ369boL4K8h1-13" vertex="1" connectable="0">
          <mxGeometry width="240" height="360" as="geometry" />
        </mxCell>
        <mxCell id="Bta4R8MGhBC_zZpxbiVx-263" value="" style="group" parent="Bta4R8MGhBC_zZpxbiVx-262" vertex="1" connectable="0">
          <mxGeometry y="63.529411764705884" width="240" height="296.4705882352942" as="geometry" />
        </mxCell>
        <mxCell id="Bta4R8MGhBC_zZpxbiVx-264" value="APSIM" style="whiteSpace=wrap;shadow=0;fontColor=#FFFFFF;fontFamily=Helvetica;fontStyle=0;html=1;fontSize=19;plain-purple;strokeColor=none;fillColor=#3871AB;gradientColor=none;spacing=6;verticalAlign=middle;sketch=0;labelBackgroundColor=none;" parent="Bta4R8MGhBC_zZpxbiVx-263" vertex="1">
          <mxGeometry width="240" height="105.8823529411765" as="geometry" />
        </mxCell>
        <mxCell id="Bta4R8MGhBC_zZpxbiVx-265" value="Yields" style="whiteSpace=wrap;shadow=0;fontColor=#FFFFFF;fontFamily=Helvetica;fontStyle=0;html=1;fontSize=19;plain-purple;strokeColor=none;fillColor=#3871AB;gradientColor=none;spacing=6;verticalAlign=middle;sketch=0;labelBackgroundColor=none;" parent="Bta4R8MGhBC_zZpxbiVx-263" vertex="1">
          <mxGeometry y="105.8823529411765" width="240" height="95.29411764705884" as="geometry" />
        </mxCell>
        <mxCell id="Bta4R8MGhBC_zZpxbiVx-266" value="Nutrients" style="whiteSpace=wrap;shadow=0;fontColor=#FFFFFF;fontFamily=Helvetica;fontStyle=0;html=1;fontSize=19;plain-purple;strokeColor=none;fillColor=#3871AB;gradientColor=none;spacing=6;verticalAlign=middle;sketch=0;labelBackgroundColor=none;" parent="Bta4R8MGhBC_zZpxbiVx-263" vertex="1">
          <mxGeometry y="201.17647058823533" width="240" height="95.29411764705884" as="geometry" />
        </mxCell>
        <mxCell id="Bta4R8MGhBC_zZpxbiVx-267" value="Fernando/Sebastian" style="verticalLabelPosition=middle;verticalAlign=middle;html=1;shape=mxgraph.basic.corner_round_rect;dx=6;fontSize=21;whiteSpace=wrap;labelPosition=center;align=center;" parent="Bta4R8MGhBC_zZpxbiVx-262" vertex="1">
          <mxGeometry width="240" height="63.529411764705884" as="geometry" />
        </mxCell>
        <mxCell id="FbwZjn5DJ369boL4K8h1-10" value="Soil" style="whiteSpace=wrap;shadow=0;fontColor=#FFFFFF;fontFamily=Helvetica;fontStyle=0;html=1;fontSize=19;plain-purple;strokeColor=none;fillColor=#3871AB;gradientColor=none;spacing=6;verticalAlign=middle;sketch=0;labelBackgroundColor=none;" parent="FbwZjn5DJ369boL4K8h1-13" vertex="1">
          <mxGeometry y="359.9958823529412" width="240" height="95.29411764705884" as="geometry" />
        </mxCell>
        <mxCell id="FbwZjn5DJ369boL4K8h1-11" value="GHG?" style="whiteSpace=wrap;shadow=0;fontColor=#FFFFFF;fontFamily=Helvetica;fontStyle=0;html=1;fontSize=19;plain-purple;strokeColor=none;fillColor=#3871AB;gradientColor=none;spacing=6;verticalAlign=middle;sketch=0;labelBackgroundColor=none;" parent="FbwZjn5DJ369boL4K8h1-13" vertex="1">
          <mxGeometry y="455.28588235294114" width="240" height="95.29411764705884" as="geometry" />
        </mxCell>
        <mxCell id="cpoO33E2cY1CjBKNhvb5-2" value="" style="group" parent="1" vertex="1" connectable="0">
          <mxGeometry x="2560" y="700.0000000000002" width="240" height="354.1199999999999" as="geometry" />
        </mxCell>
        <mxCell id="Bta4R8MGhBC_zZpxbiVx-239" value="" style="group" parent="cpoO33E2cY1CjBKNhvb5-2" vertex="1" connectable="0">
          <mxGeometry width="240" height="280" as="geometry" />
        </mxCell>
        <mxCell id="Bta4R8MGhBC_zZpxbiVx-240" value="" style="group" parent="Bta4R8MGhBC_zZpxbiVx-239" vertex="1" connectable="0">
          <mxGeometry y="49.41176470588235" width="240" height="230.58823529411768" as="geometry" />
        </mxCell>
        <mxCell id="Bta4R8MGhBC_zZpxbiVx-241" value="&lt;span style=&quot;background-color: transparent;&quot;&gt;Biogas&lt;/span&gt;" style="whiteSpace=wrap;shadow=0;fontColor=#FFFFFF;fontFamily=Helvetica;fontStyle=0;html=1;fontSize=19;plain-purple;strokeColor=none;fillColor=#FF6666;gradientColor=none;spacing=6;verticalAlign=middle;sketch=0;labelBackgroundColor=none;" parent="Bta4R8MGhBC_zZpxbiVx-240" vertex="1">
          <mxGeometry width="240" height="82.35294117647061" as="geometry" />
        </mxCell>
        <mxCell id="Bta4R8MGhBC_zZpxbiVx-242" value="Prairie" style="whiteSpace=wrap;shadow=0;fontColor=#FFFFFF;fontFamily=Helvetica;fontStyle=0;html=1;fontSize=19;plain-purple;strokeColor=none;fillColor=#3871AB;gradientColor=none;spacing=6;verticalAlign=middle;sketch=0;labelBackgroundColor=none;" parent="Bta4R8MGhBC_zZpxbiVx-240" vertex="1">
          <mxGeometry y="82.35294117647061" width="240" height="74.11764705882354" as="geometry" />
        </mxCell>
        <mxCell id="Bta4R8MGhBC_zZpxbiVx-243" value="Cover crop" style="whiteSpace=wrap;shadow=0;fontColor=#FFFFFF;fontFamily=Helvetica;fontStyle=0;html=1;fontSize=19;plain-purple;strokeColor=none;fillColor=#B266FF;gradientColor=none;spacing=6;verticalAlign=middle;sketch=0;labelBackgroundColor=none;" parent="Bta4R8MGhBC_zZpxbiVx-240" vertex="1">
          <mxGeometry y="156.47058823529414" width="240" height="74.11764705882354" as="geometry" />
        </mxCell>
        <mxCell id="Bta4R8MGhBC_zZpxbiVx-244" value="Economics" style="verticalLabelPosition=middle;verticalAlign=middle;html=1;shape=mxgraph.basic.corner_round_rect;dx=6;fontSize=21;whiteSpace=wrap;labelPosition=center;align=center;" parent="Bta4R8MGhBC_zZpxbiVx-239" vertex="1">
          <mxGeometry width="240" height="49.41176470588235" as="geometry" />
        </mxCell>
        <mxCell id="cpoO33E2cY1CjBKNhvb5-1" value="Animals" style="whiteSpace=wrap;shadow=0;fontColor=#FFFFFF;fontFamily=Helvetica;fontStyle=0;html=1;fontSize=19;plain-purple;strokeColor=none;fillColor=#3871AB;gradientColor=none;spacing=6;verticalAlign=middle;sketch=0;labelBackgroundColor=none;" parent="cpoO33E2cY1CjBKNhvb5-2" vertex="1">
          <mxGeometry y="280.00235294117647" width="240" height="74.11764705882354" as="geometry" />
        </mxCell>
        <mxCell id="cpoO33E2cY1CjBKNhvb5-6" value="" style="group" parent="1" vertex="1" connectable="0">
          <mxGeometry x="3790" y="630" width="240" height="238.2299999999998" as="geometry" />
        </mxCell>
        <mxCell id="cpoO33E2cY1CjBKNhvb5-3" value="Lisa/John/Ellen" style="verticalLabelPosition=middle;verticalAlign=middle;html=1;shape=mxgraph.basic.corner_round_rect;dx=6;fontSize=21;whiteSpace=wrap;labelPosition=center;align=center;" parent="cpoO33E2cY1CjBKNhvb5-6" vertex="1">
          <mxGeometry width="240" height="49.41176470588235" as="geometry" />
        </mxCell>
        <mxCell id="cpoO33E2cY1CjBKNhvb5-4" value="InVEST" style="whiteSpace=wrap;shadow=0;fontColor=#FFFFFF;fontFamily=Helvetica;fontStyle=0;html=1;fontSize=19;plain-purple;strokeColor=none;fillColor=#3871AB;gradientColor=none;spacing=6;verticalAlign=middle;sketch=0;labelBackgroundColor=none;" parent="cpoO33E2cY1CjBKNhvb5-6" vertex="1">
          <mxGeometry y="47.641764705882224" width="240" height="95.29411764705884" as="geometry" />
        </mxCell>
        <mxCell id="cpoO33E2cY1CjBKNhvb5-14" value="" style="group" parent="1" vertex="1" connectable="0">
          <mxGeometry x="1820" y="1360" width="260" height="584.71" as="geometry" />
        </mxCell>
        <mxCell id="cpoO33E2cY1CjBKNhvb5-11" value="" style="group" parent="cpoO33E2cY1CjBKNhvb5-14" vertex="1" connectable="0">
          <mxGeometry width="260" height="420.59000000000015" as="geometry" />
        </mxCell>
        <mxCell id="Bta4R8MGhBC_zZpxbiVx-289" value="Sievers Farm" style="verticalLabelPosition=middle;verticalAlign=middle;html=1;shape=mxgraph.basic.corner_round_rect;dx=6;labelBackgroundColor=none;fontSize=21;whiteSpace=wrap;labelPosition=center;align=center;" parent="cpoO33E2cY1CjBKNhvb5-11" vertex="1">
          <mxGeometry width="260" height="190" as="geometry" />
        </mxCell>
        <mxCell id="cpoO33E2cY1CjBKNhvb5-7" value="Biogas" style="whiteSpace=wrap;shadow=0;fontColor=#FFFFFF;fontFamily=Helvetica;fontStyle=0;html=1;fontSize=19;plain-purple;strokeColor=none;fillColor=#3871AB;gradientColor=none;spacing=6;verticalAlign=middle;sketch=0;labelBackgroundColor=none;" parent="cpoO33E2cY1CjBKNhvb5-11" vertex="1">
          <mxGeometry y="190" width="260" height="82.35" as="geometry" />
        </mxCell>
        <mxCell id="cpoO33E2cY1CjBKNhvb5-8" value="Prairie" style="whiteSpace=wrap;shadow=0;fontColor=#FFFFFF;fontFamily=Helvetica;fontStyle=0;html=1;fontSize=19;plain-purple;strokeColor=none;fillColor=#3871AB;gradientColor=none;spacing=6;verticalAlign=middle;sketch=0;labelBackgroundColor=none;" parent="cpoO33E2cY1CjBKNhvb5-11" vertex="1">
          <mxGeometry y="272.3499999999999" width="260" height="74.12" as="geometry" />
        </mxCell>
        <mxCell id="cpoO33E2cY1CjBKNhvb5-9" value="Cover crop" style="whiteSpace=wrap;shadow=0;fontColor=#FFFFFF;fontFamily=Helvetica;fontStyle=0;html=1;fontSize=19;plain-purple;strokeColor=none;fillColor=#3871AB;gradientColor=none;spacing=6;verticalAlign=middle;sketch=0;labelBackgroundColor=none;" parent="cpoO33E2cY1CjBKNhvb5-11" vertex="1">
          <mxGeometry y="346.47" width="260" height="74.12" as="geometry" />
        </mxCell>
        <mxCell id="cpoO33E2cY1CjBKNhvb5-12" value="Corn" style="whiteSpace=wrap;shadow=0;fontColor=#FFFFFF;fontFamily=Helvetica;fontStyle=0;html=1;fontSize=19;plain-purple;strokeColor=none;fillColor=#2f5b7c;gradientColor=none;spacing=6;verticalAlign=middle;sketch=0;labelBackgroundColor=none;" parent="cpoO33E2cY1CjBKNhvb5-14" vertex="1">
          <mxGeometry y="420.5899999999999" width="260" height="82.06" as="geometry" />
        </mxCell>
        <mxCell id="cpoO33E2cY1CjBKNhvb5-13" value="Soybeans" style="whiteSpace=wrap;shadow=0;fontColor=#FFFFFF;fontFamily=Helvetica;fontStyle=0;html=1;fontSize=19;plain-purple;strokeColor=none;fillColor=#2f5b7c;gradientColor=none;spacing=6;verticalAlign=middle;sketch=0;labelBackgroundColor=none;" parent="cpoO33E2cY1CjBKNhvb5-14" vertex="1">
          <mxGeometry y="502.6500000000001" width="260" height="82.06" as="geometry" />
        </mxCell>
        <mxCell id="cpoO33E2cY1CjBKNhvb5-15" style="edgeStyle=orthogonalEdgeStyle;rounded=0;orthogonalLoop=1;jettySize=auto;html=1;exitX=1;exitY=0.5;exitDx=0;exitDy=0;exitPerimeter=0;entryX=0.5;entryY=0;entryDx=0;entryDy=0;entryPerimeter=0;" parent="1" source="Bta4R8MGhBC_zZpxbiVx-267" target="Bta4R8MGhBC_zZpxbiVx-289" edge="1">
          <mxGeometry relative="1" as="geometry" />
        </mxCell>
        <mxCell id="fsY-NsWyViT9tGZLsp4b-1" value="" style="group" vertex="1" connectable="0" parent="1">
          <mxGeometry x="2210" y="130" width="240" height="142.93588235294106" as="geometry" />
        </mxCell>
        <mxCell id="cpoO33E2cY1CjBKNhvb5-17" value="Chris, Lucas, Divya" style="verticalLabelPosition=middle;verticalAlign=middle;html=1;shape=mxgraph.basic.corner_round_rect;dx=6;fontSize=21;whiteSpace=wrap;labelPosition=center;align=center;" parent="fsY-NsWyViT9tGZLsp4b-1" vertex="1">
          <mxGeometry width="240" height="49.41176470588235" as="geometry" />
        </mxCell>
        <mxCell id="cpoO33E2cY1CjBKNhvb5-18" value="CSNAPNI Model" style="whiteSpace=wrap;shadow=0;fontColor=#FFFFFF;fontFamily=Helvetica;fontStyle=0;html=1;fontSize=19;plain-purple;strokeColor=none;fillColor=#3871AB;gradientColor=none;spacing=6;verticalAlign=middle;sketch=0;labelBackgroundColor=none;" parent="fsY-NsWyViT9tGZLsp4b-1" vertex="1">
          <mxGeometry y="47.641764705882224" width="240" height="95.29411764705884" as="geometry" />
        </mxCell>
        <mxCell id="fsY-NsWyViT9tGZLsp4b-2" style="edgeStyle=orthogonalEdgeStyle;rounded=0;orthogonalLoop=1;jettySize=auto;html=1;exitX=0.5;exitY=1;exitDx=0;exitDy=0;entryX=0.5;entryY=0;entryDx=0;entryDy=0;entryPerimeter=0;" edge="1" parent="1" source="cpoO33E2cY1CjBKNhvb5-18" target="Bta4R8MGhBC_zZpxbiVx-250">
          <mxGeometry relative="1" as="geometry" />
        </mxCell>
        <mxCell id="fsY-NsWyViT9tGZLsp4b-3" value="" style="group" vertex="1" connectable="0" parent="1">
          <mxGeometry x="2950" y="1360" width="260" height="342.3499999999999" as="geometry" />
        </mxCell>
        <mxCell id="Bta4R8MGhBC_zZpxbiVx-293" value="Reinford Farms" style="verticalLabelPosition=middle;verticalAlign=middle;html=1;shape=mxgraph.basic.corner_round_rect;dx=6;labelBackgroundColor=none;fontSize=21;whiteSpace=wrap;labelPosition=center;align=center;" parent="fsY-NsWyViT9tGZLsp4b-3" vertex="1">
          <mxGeometry width="260" height="190" as="geometry" />
        </mxCell>
        <mxCell id="FbwZjn5DJ369boL4K8h1-3" value="Biogas" style="whiteSpace=wrap;shadow=0;fontColor=#FFFFFF;fontFamily=Helvetica;fontStyle=0;html=1;fontSize=19;plain-purple;strokeColor=none;fillColor=#3871AB;gradientColor=none;spacing=6;verticalAlign=middle;sketch=0;labelBackgroundColor=none;" parent="fsY-NsWyViT9tGZLsp4b-3" vertex="1">
          <mxGeometry y="190" width="260" height="82.35" as="geometry" />
        </mxCell>
        <mxCell id="FbwZjn5DJ369boL4K8h1-5" value="Cover crop" style="whiteSpace=wrap;shadow=0;fontColor=#FFFFFF;fontFamily=Helvetica;fontStyle=0;html=1;fontSize=19;plain-purple;strokeColor=none;fillColor=#3871AB;gradientColor=none;spacing=6;verticalAlign=middle;sketch=0;labelBackgroundColor=none;" parent="fsY-NsWyViT9tGZLsp4b-3" vertex="1">
          <mxGeometry y="268.23" width="260" height="74.12" as="geometry" />
        </mxCell>
        <mxCell id="fsY-NsWyViT9tGZLsp4b-4" style="edgeStyle=orthogonalEdgeStyle;rounded=0;orthogonalLoop=1;jettySize=auto;html=1;exitX=0.5;exitY=1;exitDx=0;exitDy=0;" edge="1" parent="1" source="cpoO33E2cY1CjBKNhvb5-18" target="Bta4R8MGhBC_zZpxbiVx-291">
          <mxGeometry relative="1" as="geometry">
            <Array as="points">
              <mxPoint x="2100" y="273" />
            </Array>
          </mxGeometry>
        </mxCell>
        <mxCell id="fsY-NsWyViT9tGZLsp4b-6" value="" style="group;fillColor=#3871AB;" vertex="1" connectable="0" parent="1">
          <mxGeometry x="3430" y="774.1200000000003" width="240" height="354.1199999999999" as="geometry" />
        </mxCell>
        <mxCell id="fsY-NsWyViT9tGZLsp4b-7" value="" style="group" vertex="1" connectable="0" parent="fsY-NsWyViT9tGZLsp4b-6">
          <mxGeometry width="240" height="280" as="geometry" />
        </mxCell>
        <mxCell id="fsY-NsWyViT9tGZLsp4b-8" value="" style="group" vertex="1" connectable="0" parent="fsY-NsWyViT9tGZLsp4b-7">
          <mxGeometry y="49.41176470588235" width="240" height="230.58823529411768" as="geometry" />
        </mxCell>
        <mxCell id="fsY-NsWyViT9tGZLsp4b-9" value="How much feedstock is needed?" style="whiteSpace=wrap;shadow=0;fontColor=#FFFFFF;fontFamily=Helvetica;fontStyle=0;html=1;fontSize=19;plain-purple;strokeColor=none;fillColor=#3871AB;gradientColor=none;spacing=6;verticalAlign=middle;sketch=0;labelBackgroundColor=none;" vertex="1" parent="fsY-NsWyViT9tGZLsp4b-8">
          <mxGeometry width="240" height="82.35294117647061" as="geometry" />
        </mxCell>
        <mxCell id="fsY-NsWyViT9tGZLsp4b-10" value="Central location, municipal, individual farm, co-op?" style="whiteSpace=wrap;shadow=0;fontColor=#FFFFFF;fontFamily=Helvetica;fontStyle=0;html=1;fontSize=19;plain-purple;strokeColor=none;fillColor=#3871AB;gradientColor=none;spacing=6;verticalAlign=middle;sketch=0;labelBackgroundColor=none;" vertex="1" parent="fsY-NsWyViT9tGZLsp4b-8">
          <mxGeometry y="82.35294117647061" width="240" height="74.11764705882354" as="geometry" />
        </mxCell>
        <mxCell id="fsY-NsWyViT9tGZLsp4b-11" value="" style="whiteSpace=wrap;shadow=0;fontColor=#FFFFFF;fontFamily=Helvetica;fontStyle=0;html=1;fontSize=19;plain-purple;strokeColor=none;fillColor=#3871AB;gradientColor=none;spacing=6;verticalAlign=middle;sketch=0;labelBackgroundColor=none;" vertex="1" parent="fsY-NsWyViT9tGZLsp4b-8">
          <mxGeometry y="156.47058823529414" width="240" height="74.11764705882354" as="geometry" />
        </mxCell>
        <mxCell id="fsY-NsWyViT9tGZLsp4b-12" value="Biogas Logistics" style="verticalLabelPosition=middle;verticalAlign=middle;html=1;shape=mxgraph.basic.corner_round_rect;dx=6;fontSize=21;whiteSpace=wrap;labelPosition=center;align=center;" vertex="1" parent="fsY-NsWyViT9tGZLsp4b-7">
          <mxGeometry width="240" height="49.41176470588235" as="geometry" />
        </mxCell>
        <mxCell id="fsY-NsWyViT9tGZLsp4b-13" value="Animals" style="whiteSpace=wrap;shadow=0;fontColor=#FFFFFF;fontFamily=Helvetica;fontStyle=0;html=1;fontSize=19;plain-purple;strokeColor=none;fillColor=#3871AB;gradientColor=none;spacing=6;verticalAlign=middle;sketch=0;labelBackgroundColor=none;" vertex="1" parent="fsY-NsWyViT9tGZLsp4b-6">
          <mxGeometry y="280.00235294117647" width="240" height="74.11764705882354" as="geometry" />
        </mxCell>
        <mxCell id="fsY-NsWyViT9tGZLsp4b-17" style="edgeStyle=orthogonalEdgeStyle;rounded=0;orthogonalLoop=1;jettySize=auto;html=1;exitX=0.5;exitY=1;exitDx=0;exitDy=0;entryX=1;entryY=0.5;entryDx=0;entryDy=0;entryPerimeter=0;" edge="1" parent="1" source="cpoO33E2cY1CjBKNhvb5-4" target="Bta4R8MGhBC_zZpxbiVx-288">
          <mxGeometry relative="1" as="geometry" />
        </mxCell>
        <mxCell id="fsY-NsWyViT9tGZLsp4b-18" style="edgeStyle=orthogonalEdgeStyle;rounded=0;orthogonalLoop=1;jettySize=auto;html=1;exitX=0;exitY=0.75;exitDx=0;exitDy=0;entryX=0.5;entryY=0;entryDx=0;entryDy=0;entryPerimeter=0;" edge="1" parent="1" source="cpoO33E2cY1CjBKNhvb5-4" target="Bta4R8MGhBC_zZpxbiVx-244">
          <mxGeometry relative="1" as="geometry" />
        </mxCell>
        <mxCell id="fsY-NsWyViT9tGZLsp4b-27" style="edgeStyle=orthogonalEdgeStyle;rounded=0;orthogonalLoop=1;jettySize=auto;html=1;exitX=0;exitY=0.5;exitDx=0;exitDy=0;entryX=0.5;entryY=0;entryDx=0;entryDy=0;entryPerimeter=0;" edge="1" parent="1" source="cpoO33E2cY1CjBKNhvb5-4" target="Bta4R8MGhBC_zZpxbiVx-250">
          <mxGeometry relative="1" as="geometry" />
        </mxCell>
      </root>
    </mxGraphModel>
  </diagram>
</mxfile>
